<svg xmlns="http://www.w3.org/2000/svg" version="1.1" width="200" height="200">
<path d="M0 0 C66 0 132 0 200 0 C200 66 200 132 200 200 C134 200 68 200 0 200 C0 134 0 68 0 0 Z " fill="#EAA409" transform="translate(0,0)"/>
<path d="M0 0 C17.82 0 35.64 0 54 0 C54 5.94 54 11.88 54 18 C42.45 18 30.9 18 19 18 C19 23.28 19 28.56 19 34 C29.56 34 40.12 34 51 34 C51 39.61 51 45.22 51 51 C40.44 51 29.88 51 19 51 C19 56.28 19 61.56 19 67 C30.55 67 42.1 67 54 67 C54 72.94 54 78.88 54 85 C36.18 85 18.36 85 0 85 C0 56.95 0 28.9 0 0 Z " fill="#24201D" transform="translate(65,57)"/>
<path d="M0 0 C17.82 0 35.64 0 54 0 C54 5.94 54 11.88 54 18 C42.45 18 30.9 18 19 18 C19 17.34 19 16.68 19 16 C29.89 16 40.78 16 52 16 C52 11.38 52 6.76 52 2 C35.17 2 18.34 2 1 2 C1 29.06 1 56.12 1 84 C17.83 84 34.66 84 52 84 C52 78.72 52 73.44 52 68 C41.11 68 30.22 68 19 68 C19 67.67 19 67.34 19 67 C30.55 67 42.1 67 54 67 C54 72.94 54 78.88 54 85 C36.18 85 18.36 85 0 85 C0 56.95 0 28.9 0 0 Z " fill="#392403" transform="translate(65,57)"/>
<path d="M0 0 C3.18845573 0.27174339 4.2010566 0.82153773 7 2.6875 C9.21925086 6.01637629 9.75890933 7.82686508 9.4765625 11.75 C8.60276841 15.30247432 6.9838283 16.69828114 4 18.6875 C0.97719254 19.36389058 -0.81088113 19.14308841 -4 18.6875 C-7.31327526 16.13882672 -8.8095103 14.08442449 -9.375 9.9375 C-8.72703849 4.32183358 -5.81632916 0.38555212 0 0 Z " fill="#231F1E" transform="translate(137,123.3125)"/>
<path d="M0 0 C3.8125 0.5 3.8125 0.5 5.8125 2.5 C5.19761719 2.44199219 4.58273438 2.38398437 3.94921875 2.32421875 C1.48593941 2.18671512 -0.74544325 2.13195953 -3.1875 2.5 C-5.34352694 4.83749166 -5.34352694 4.83749166 -6.1875 7.5 C-5.8575 7.83 -5.5275 8.16 -5.1875 8.5 C-4.81989269 10.82817964 -4.48508419 13.1618385 -4.1875 15.5 C-1.8775 16.16 0.4325 16.82 2.8125 17.5 C2.8125 16.84 2.8125 16.18 2.8125 15.5 C3.8025 15.5 4.7925 15.5 5.8125 15.5 C5.8125 14.18 5.8125 12.86 5.8125 11.5 C6.4725 11.5 7.1325 11.5 7.8125 11.5 C7.8125 9.52 7.8125 7.54 7.8125 5.5 C8.1425 5.5 8.4725 5.5 8.8125 5.5 C9.41400376 12.59774436 9.41400376 12.59774436 6.8125 16.5 C2.65687903 19.27041398 0.74582128 19.20476018 -4.1875 18.5 C-7.50077526 15.95132672 -8.9970103 13.89692449 -9.5625 9.75 C-8.89680035 3.98060303 -5.9518417 0.15177738 0 0 Z " fill="#33230D" transform="translate(137.1875,123.5)"/>
<path d="M0 0 C4.29 0 8.58 0 13 0 C13 0.66 13 1.32 13 2 C12.32453125 1.94199219 11.6490625 1.88398437 10.953125 1.82421875 C5.21916951 1.4221738 5.21916951 1.4221738 0.375 4.125 C-1.69286605 8.44871992 -1.49590206 11.51229382 0 16 C-0.66 16.33 -1.32 16.66 -2 17 C-3.32229189 14.35541621 -3.09677194 12.32238699 -3.0625 9.375 C-3.05347656 8.37210938 -3.04445313 7.36921875 -3.03515625 6.3359375 C-3.02355469 5.56507813 -3.01195313 4.79421875 -3 4 C-2.01 3.67 -1.02 3.34 0 3 C0 2.01 0 1.02 0 0 Z " fill="#CC9822" transform="translate(130,123)"/>
<path d="M0 0 C0.33 0 0.66 0 1 0 C1.60150376 7.09774436 1.60150376 7.09774436 -1 11 C-5.15562097 13.77041398 -7.06667872 13.70476018 -12 13 C-14.5 11 -14.5 11 -16 9 C-15.01 9 -14.02 9 -13 9 C-12.34 9.66 -11.68 10.32 -11 11 C-9.01178687 11.39764263 -7.01055661 11.73775349 -5 12 C-5 11.34 -5 10.68 -5 10 C-4.01 10 -3.02 10 -2 10 C-2 8.68 -2 7.36 -2 6 C-1.34 6 -0.68 6 0 6 C0 4.02 0 2.04 0 0 Z " fill="#402906" transform="translate(145,129)"/>
</svg>