<svg xmlns="http://www.w3.org/2000/svg" id="a" viewBox="0 0 150 150"><defs><style>.b{fill:#fd5f07;fill-rule:evenodd;}.c{fill:none;}</style></defs><path class="c" d="M0,0H150V150H0V0Z"/><path class="b" d="M137.14,31.29C124.81-3.9,73.08,6.41,74.95,43.6c.2,17.69,.38,60.57,.36,61.56,.04,21.55-25.23,36.55-44.04,25.95-16.82-8.57-21.5-32.49-8.9-46.63,1.18-1.47,2.5-2.78,3.95-3.91,12.31-10,30.04-5.75,44.83-6.57l-.06-8.42c-18.21,.74-40.54-.57-51.95,16.58-15.57,20.91-3.41,55.31,23.36,58.56,20.89,3.64,41.05-13.76,42.3-34.57,.35-3.91,1.78-62.54,1.78-62.54-.75-11.26,8.52-22.14,20.06-21.86,26.87,.56,27.67,39.96,1.19,42.16l-17.63,.43-.21,9.69,17.84,.21c21.21,0,36.56-23.27,29.32-42.94Z"/></svg>